HIERARCHY
ROOT pelvis
{
	OFFSET 0.000000 0.000000 0.730297
	CHANNELS 6 Xposition Yposition Zposition Xrotation Yrotation Zrotation
	JOINT spine
	{
		OFFSET 0.000000 0.000000 0.000000
		CHANNELS 6 Xposition Yposition Zposition Xrotation Yrotation Zrotation
		JOINT spine.001
		{
			OFFSET 0.000000 -0.013971 0.266578
			CHANNELS 3 Xrotation Yrotation Zrotation
			JOINT neck
			{
				OFFSET 0.000000 0.032532 0.264954
				CHANNELS 6 Xposition Yposition Zposition Xrotation Yrotation Zrotation
				JOINT face
				{
					OFFSET 0.000000 0.003730 0.213700
					CHANNELS 6 Xposition Yposition Zposition Xrotation Yrotation Zrotation
					End Site
					{
						OFFSET 0.000000 -0.028163 -0.007763
					}
				}
			}
			JOINT shoulder.L
			{
				OFFSET 0.000000 0.032532 0.264954
				CHANNELS 6 Xposition Yposition Zposition Yrotation Xrotation Zrotation
				JOINT upper_arm.L
				{
					OFFSET 0.164955 0.000000 0.000000
					CHANNELS 6 Xposition Yposition Zposition Xrotation Yrotation Zrotation
					JOINT forearm.L
					{
						OFFSET 0.279839 0.000115 0.000957
						CHANNELS 6 Xposition Yposition Zposition Xrotation Yrotation Zrotation
						End Site
						{
							OFFSET 0.243877 -0.004151 -0.001319
						}
					}
				}
			}
			JOINT shoulder.R
			{
				OFFSET 0.000000 0.032532 0.264954
				CHANNELS 6 Xposition Yposition Zposition Yrotation Xrotation Zrotation
				JOINT upper_arm.R
				{
					OFFSET -0.164955 0.000000 0.000000
					CHANNELS 6 Xposition Yposition Zposition Xrotation Yrotation Zrotation
					JOINT forearm.R
					{
						OFFSET -0.274111 0.000115 0.000957
						CHANNELS 6 Xposition Yposition Zposition Xrotation Yrotation Zrotation
						End Site
						{
							OFFSET -0.238797 -0.004062 -0.001318
						}
					}
				}
			}
		}
	}
	JOINT pelvis.L
	{
		OFFSET 0.000000 0.000000 0.000000
		CHANNELS 6 Xposition Yposition Zposition Yrotation Xrotation Zrotation
		End Site
		{
			OFFSET 0.110591 0.000000 0.000000
		}
	}
	JOINT pelvis.R
	{
		OFFSET 0.000000 0.000000 0.000000
		CHANNELS 6 Xposition Yposition Zposition Yrotation Xrotation Zrotation
		End Site
		{
			OFFSET -0.110591 0.000000 0.000000
		}
	}
	JOINT thigh.L
	{
		OFFSET 0.110591 0.000000 0.000000
		CHANNELS 6 Xposition Yposition Zposition Xrotation Yrotation Zrotation
		JOINT shin.L
		{
			OFFSET 0.018738 0.000000 -0.357535
			CHANNELS 6 Xposition Yposition Zposition Xrotation Yrotation Zrotation
			JOINT foot.L
			{
				OFFSET 0.015788 0.000000 -0.301246
				CHANNELS 3 Xrotation Yrotation Zrotation
				End Site
				{
					OFFSET 0.016159 -0.164762 -0.069186
				}
			}
			JOINT heel.02.L
			{
				OFFSET 0.015788 0.000000 -0.301246
				CHANNELS 3 Xrotation Yrotation Zrotation
				End Site
				{
					OFFSET -0.074831 0.034408 -0.074632
				}
			}
		}
	}
	JOINT thigh.R
	{
		OFFSET -0.110591 0.000000 0.000000
		CHANNELS 6 Xposition Yposition Zposition Xrotation Yrotation Zrotation
		JOINT shin.R
		{
			OFFSET -0.018180 0.000000 -0.346900
			CHANNELS 6 Xposition Yposition Zposition Xrotation Yrotation Zrotation
			JOINT foot.R
			{
				OFFSET -0.016204 0.000000 -0.309190
				CHANNELS 3 Xrotation Yrotation Zrotation
				End Site
				{
					OFFSET -0.017013 -0.173465 -0.072841
				}
			}
			JOINT heel.02.R
			{
				OFFSET -0.016204 0.000000 -0.309190
				CHANNELS 3 Xrotation Yrotation Zrotation
				End Site
				{
					OFFSET 0.070782 0.034408 -0.077117
				}
			}
		}
	}
}
MOTION
Frames: 4
Frame Time: 0.041667
0.016889 0.044267 0.714542 -0.000000 0.000000 4.435327 0.000000 -0.000000 -0.000000 -9.384414 0.532930 0.071981 9.999931 0.039499 0.321795 0.000000 0.032532 0.264954 6.735311 -1.512973 1.474668 0.000000 0.003730 0.213700 2.816868 0.000000 0.000002 0.000000 0.032532 0.264955 0.529655 0.000300 -0.064965 0.164955 -0.000000 -0.000000 30.664732 76.668525 -38.236850 0.279839 0.000115 0.000957 1.384822 8.924785 -16.793861 0.000000 0.032532 0.264955 0.581204 0.000362 -0.071364 -0.164955 -0.000000 -0.000000 25.527521 -76.629777 31.991213 -0.274111 0.000115 0.000957 2.493465 -13.576306 19.651508 0.000000 0.000000 -0.000000 -0.921694 0.000001 0.000082 0.000000 0.000000 -0.000000 -0.921694 -0.000000 0.000000 0.110577 -0.000000 0.001779 0.043239 2.489220 0.001328 0.018738 0.000000 -0.357535 1.695564 2.745262 0.048296 -6.794492 -5.829976 10.342786 0.546893 -24.509686 -15.089088 -0.110577 0.000000 -0.001779 -0.486476 0.111272 0.025966 -0.018180 0.000000 -0.346900 5.823874 -3.417049 -0.131820 -6.080700 9.056286 -17.085001 -0.171500 20.650332 11.008528 
0.016930 0.044278 0.714575 -0.000000 0.000000 4.433878 -0.000000 -0.000000 -0.000000 -9.377181 0.528897 0.071403 10.000002 0.038687 0.315249 -0.000000 0.032532 0.264954 6.714739 -1.507263 1.483249 -0.000000 0.003730 0.213700 2.822102 0.000000 0.000001 -0.000000 0.032532 0.264955 0.528964 0.000298 -0.064887 0.164955 0.000000 -0.000000 30.664848 76.675478 -38.232527 0.279839 0.000115 0.000957 1.386185 8.923931 -16.814013 -0.000000 0.032532 0.264955 0.580514 0.000359 -0.071232 -0.164955 -0.000000 0.000000 25.551500 -76.617920 32.027126 -0.274111 0.000115 0.000957 2.494635 -13.595815 19.629429 -0.000000 -0.000000 0.000000 -0.924535 -0.000000 0.000056 -0.000000 -0.000000 0.000000 -0.924566 -0.000000 -0.000000 0.110577 -0.000000 0.001784 0.037715 2.491852 0.001158 0.018738 -0.000000 -0.357535 1.702217 2.743007 0.048520 -6.765465 -5.832481 10.360287 0.545313 -24.526062 -15.100327 -0.110577 -0.000000 -0.001784 -0.494454 0.127034 0.026460 -0.018180 -0.000000 -0.346900 5.838728 -3.443314 -0.130815 -6.095571 9.063754 -17.091167 -0.193435 20.683245 11.012169 
0.016969 0.044289 0.714606 -0.000000 0.000000 4.433676 -0.000000 0.000000 -0.000000 -9.372318 0.524775 0.070824 9.999875 0.039021 0.317895 -0.000000 0.032532 0.264954 6.702404 -1.504236 1.486866 -0.000000 0.003730 0.213700 2.825791 0.000000 -0.000000 -0.000000 0.032532 0.264955 0.527199 0.000298 -0.064844 0.164955 0.000000 0.000000 30.686005 76.679529 -38.255657 0.279839 0.000115 0.000957 1.386766 8.924965 -16.819527 -0.000000 0.032532 0.264955 0.578750 0.000359 -0.071130 -0.164955 -0.000000 -0.000000 25.549900 -76.609034 32.029913 -0.274111 0.000115 0.000957 2.496447 -13.613639 19.615509 -0.000000 0.000000 0.000000 -0.927408 0.000001 0.000075 -0.000000 0.000000 0.000000 -0.927408 0.000000 0.000000 0.110577 -0.000000 0.001790 0.034739 2.494575 0.001066 0.018738 0.000000 -0.357535 1.705515 2.740773 0.048647 -6.741518 -5.833977 10.373615 0.539635 -24.539510 -15.105563 -0.110577 0.000000 -0.001790 -0.501435 0.143859 0.026907 -0.018180 -0.000000 -0.346900 5.854726 -3.474288 -0.129590 -6.112629 9.073321 -17.100219 -0.212262 20.718935 11.020223 
0.017011 0.044298 0.714642 -0.000000 0.000000 4.433155 -0.000000 0.000000 -0.000000 -9.367988 0.519982 0.070157 9.999798 0.039548 0.321949 -0.000000 0.032532 0.264954 6.690578 -1.500920 1.495268 0.000000 0.003730 0.213700 2.833816 0.000000 0.000002 -0.000000 0.032532 0.264954 0.526605 0.000297 -0.064759 0.164955 0.000000 -0.000000 30.702236 76.682773 -38.273276 0.279839 0.000115 0.000957 1.387215 8.926107 -16.822995 -0.000000 0.032532 0.264955 0.578239 0.000358 -0.071012 -0.164955 0.000000 -0.000000 25.539529 -76.602300 32.020801 -0.274111 0.000115 0.000957 2.498835 -13.630297 19.608476 0.000000 0.000000 -0.000000 -0.932009 -0.000000 0.000003 0.000000 0.000000 -0.000000 -0.932009 -0.000000 0.000000 0.110577 0.000000 0.001799 0.034145 2.499427 0.001045 0.018738 0.000000 -0.357535 1.705098 2.736161 0.048703 -6.725213 -5.835256 10.383223 0.534294 -24.554320 -15.112176 -0.110577 -0.000000 -0.001799 -0.506633 0.159030 0.027253 -0.018180 0.000000 -0.346900 5.867334 -3.502142 -0.128439 -6.125958 9.082448 -17.110537 -0.220486 20.738288 11.026223 
